# xmcd
#
# Track frame offsets:
# 150
# 4243
# 17531
# 34503
# 55029
# 71821
# 91703
# 111478
# 131221
# 147917
# 166349
# 172817
# 202493
# 222747
#
# Disc length: 3023 seconds
#
#
# Revision: 0
# Processed by: cddbd v1.5.2PL0 Copyright (c) Steve Scherf et al.
# Submitted via: FreeRIP 2.945 
#
DISCID=cc0bcd0e
DTITLE=Sir Smurf Lil' - Myalpha
DYEAR=2006
DGENRE=UKHH
TTITLE0=Intro
TTITLE1=Training Day
TTITLE2=Timothy
TTITLE3=Concrete Shoes [ft. Jehst and Micall Parknsun]
TTITLE4=Outside
TTITLE5=City Night Life
TTITLE6=Ghetto Graduate [ft. Diamara]
TTITLE7=Blood On Chef's Apron
TTITLE8=Travellin' Thru Sound
TTITLE9=Caprini Green
TTITLE10=Estate Love
TTITLE11=Prision Song (4 Doughboy) [ft. Diamara]
TTITLE12=Few Steps Away
TTITLE13=Outro
EXTD=
EXTT0=Produced by Jehst
EXTT1=Produced by Jehst
EXTT2=Produced by LG
EXTT3=Produced by Jehst
EXTT4=Produced by Jehst
EXTT5=Produced by Jehst
EXTT6=Produced by Jehst
EXTT7=Produced by Jehst
EXTT8=Produced by Jehst
EXTT9=Produced by Jehst
EXTT10=Produced by Jehst
EXTT11=Produced by Jehst
EXTT12=Produced by Apa-Tight
EXTT13=Produced by Jehst
PLAYORDER=
